<mxfile host="app.diagrams.net" agent="Mozilla/5.0 (Windows NT 10.0; Win64; x64) AppleWebKit/537.36 (KHTML, like Gecko) Chrome/140.0.0.0 Safari/537.36" version="28.1.1">
  <diagram name="Page-1" id="LP4Lb6s6A55-pqGKUZwg">
    <mxGraphModel dx="3621" dy="1066" grid="1" gridSize="10" guides="1" tooltips="1" connect="1" arrows="1" fold="1" page="1" pageScale="1" pageWidth="827" pageHeight="1169" math="1" shadow="0">
      <root>
        <mxCell id="0" />
        <mxCell id="1" parent="0" />
        <mxCell id="s6Bo0KcBa6-XlI6CI8b0-150" value="" style="rounded=1;whiteSpace=wrap;html=1;strokeWidth=5;arcSize=8;" vertex="1" parent="1">
          <mxGeometry x="-530" y="1604" width="440" height="150" as="geometry" />
        </mxCell>
        <mxCell id="s6Bo0KcBa6-XlI6CI8b0-39" style="edgeStyle=orthogonalEdgeStyle;rounded=1;orthogonalLoop=1;jettySize=auto;html=1;exitX=0.5;exitY=1;exitDx=0;exitDy=0;entryX=0.5;entryY=0;entryDx=0;entryDy=0;curved=0;strokeWidth=3;" edge="1" parent="1" source="s6Bo0KcBa6-XlI6CI8b0-15" target="s6Bo0KcBa6-XlI6CI8b0-25">
          <mxGeometry relative="1" as="geometry">
            <Array as="points">
              <mxPoint x="-193" y="940" />
              <mxPoint x="40" y="940" />
              <mxPoint x="40" y="390" />
              <mxPoint x="269" y="390" />
              <mxPoint x="269" y="415" />
            </Array>
          </mxGeometry>
        </mxCell>
        <mxCell id="s6Bo0KcBa6-XlI6CI8b0-15" value="" style="rounded=1;whiteSpace=wrap;html=1;strokeWidth=5;dashed=1;arcSize=8;" vertex="1" parent="1">
          <mxGeometry x="-403.25" y="420" width="420.5" height="500" as="geometry" />
        </mxCell>
        <mxCell id="s6Bo0KcBa6-XlI6CI8b0-1" value="&lt;font style=&quot;font-size: 20px; line-height: 140%;&quot;&gt;Input Image&lt;/font&gt;" style="rounded=1;whiteSpace=wrap;html=1;fontStyle=1;strokeColor=default;fillColor=light-dark(#FFFFFF,var(--ge-dark-color, #121212));strokeWidth=5;" vertex="1" parent="1">
          <mxGeometry x="-795" y="472.5" width="160" height="60" as="geometry" />
        </mxCell>
        <mxCell id="s6Bo0KcBa6-XlI6CI8b0-2" value="&lt;font style=&quot;font-size: 20px; line-height: 140%;&quot;&gt;Input Metadata&lt;/font&gt;" style="rounded=1;whiteSpace=wrap;html=1;fontStyle=1;strokeColor=default;fillColor=light-dark(#FFFFFF,var(--ge-dark-color, #121212));strokeWidth=5;" vertex="1" parent="1">
          <mxGeometry x="-810" y="860" width="190" height="60" as="geometry" />
        </mxCell>
        <mxCell id="s6Bo0KcBa6-XlI6CI8b0-51" style="edgeStyle=orthogonalEdgeStyle;rounded=1;orthogonalLoop=1;jettySize=auto;html=1;exitX=0.5;exitY=0;exitDx=0;exitDy=0;entryX=0.5;entryY=0;entryDx=0;entryDy=0;curved=0;strokeWidth=3;" edge="1" parent="1" source="s6Bo0KcBa6-XlI6CI8b0-4" target="s6Bo0KcBa6-XlI6CI8b0-15">
          <mxGeometry relative="1" as="geometry">
            <Array as="points">
              <mxPoint x="-715" y="380" />
              <mxPoint x="-193" y="380" />
            </Array>
          </mxGeometry>
        </mxCell>
        <mxCell id="s6Bo0KcBa6-XlI6CI8b0-4" value="\[&#xa;\text{Patch Tokens } X_0&#xa;\]" style="text;whiteSpace=wrap;align=center;verticalAlign=middle;fontSize=20;" vertex="1" parent="1">
          <mxGeometry x="-820" y="420" width="210" height="40" as="geometry" />
        </mxCell>
        <mxCell id="s6Bo0KcBa6-XlI6CI8b0-53" style="edgeStyle=orthogonalEdgeStyle;rounded=1;orthogonalLoop=1;jettySize=auto;html=1;exitX=0.5;exitY=0;exitDx=0;exitDy=0;entryX=0;entryY=0.5;entryDx=0;entryDy=0;curved=0;strokeWidth=3;" edge="1" parent="1" source="s6Bo0KcBa6-XlI6CI8b0-6" target="s6Bo0KcBa6-XlI6CI8b0-9">
          <mxGeometry relative="1" as="geometry">
            <Array as="points">
              <mxPoint x="-715" y="590" />
              <mxPoint x="-530" y="590" />
              <mxPoint x="-530" y="550" />
            </Array>
          </mxGeometry>
        </mxCell>
        <mxCell id="s6Bo0KcBa6-XlI6CI8b0-54" style="edgeStyle=orthogonalEdgeStyle;rounded=1;orthogonalLoop=1;jettySize=auto;html=1;exitX=0.5;exitY=0;exitDx=0;exitDy=0;entryX=0;entryY=0.5;entryDx=0;entryDy=0;curved=0;strokeWidth=3;" edge="1" parent="1" source="s6Bo0KcBa6-XlI6CI8b0-6" target="s6Bo0KcBa6-XlI6CI8b0-10">
          <mxGeometry relative="1" as="geometry">
            <Array as="points">
              <mxPoint x="-715" y="590" />
              <mxPoint x="-530" y="590" />
              <mxPoint x="-530" y="630" />
            </Array>
          </mxGeometry>
        </mxCell>
        <mxCell id="s6Bo0KcBa6-XlI6CI8b0-6" value="\[&#xa;\text{Meta Tokens } [M_1 \ldots M_{T_m}] + \text{Meta CLS } (m_{cls})&#xa;\]" style="text;whiteSpace=wrap;verticalAlign=middle;fontSize=20;align=center;" vertex="1" parent="1">
          <mxGeometry x="-950" y="805" width="470" height="35" as="geometry" />
        </mxCell>
        <mxCell id="s6Bo0KcBa6-XlI6CI8b0-8" value="&lt;span style=&quot;font-size: 20px;&quot;&gt;Content Adaptive Window Partitioning&lt;/span&gt;" style="rounded=1;whiteSpace=wrap;html=1;fontStyle=0;strokeColor=default;fillColor=light-dark(#FFFFFF,var(--ge-dark-color, #121212));strokeWidth=3;" vertex="1" parent="1">
          <mxGeometry x="-383" y="440" width="380" height="60" as="geometry" />
        </mxCell>
        <mxCell id="s6Bo0KcBa6-XlI6CI8b0-9" value="&lt;font style=&quot;font-size: 20px;&quot;&gt;Window MSA / Shifted-Window MSA&lt;/font&gt;" style="rounded=1;whiteSpace=wrap;html=1;fontStyle=0;strokeColor=default;fillColor=light-dark(#FFFFFF,var(--ge-dark-color, #121212));strokeWidth=3;" vertex="1" parent="1">
          <mxGeometry x="-383" y="520" width="380" height="60" as="geometry" />
        </mxCell>
        <mxCell id="s6Bo0KcBa6-XlI6CI8b0-10" value="&lt;p data-pm-slice=&quot;0 0 []&quot;&gt;&lt;font style=&quot;font-size: 20px;&quot;&gt;Feature-wise Linear Modulation&lt;/font&gt;&lt;/p&gt;" style="rounded=1;whiteSpace=wrap;html=1;fontStyle=0;strokeColor=default;fillColor=light-dark(#FFFFFF,var(--ge-dark-color, #121212));strokeWidth=3;" vertex="1" parent="1">
          <mxGeometry x="-383" y="600" width="380" height="60" as="geometry" />
        </mxCell>
        <mxCell id="s6Bo0KcBa6-XlI6CI8b0-11" value="&lt;p data-pm-slice=&quot;0 0 []&quot;&gt;&lt;font style=&quot;font-size: 20px;&quot;&gt;Lesion Prototype Tokens&lt;/font&gt;&lt;/p&gt;" style="rounded=1;whiteSpace=wrap;html=1;fontStyle=0;strokeColor=default;fillColor=light-dark(#FFFFFF,var(--ge-dark-color, #121212));strokeWidth=3;" vertex="1" parent="1">
          <mxGeometry x="-383" y="680" width="380" height="60" as="geometry" />
        </mxCell>
        <mxCell id="s6Bo0KcBa6-XlI6CI8b0-13" value="&lt;p data-pm-slice=&quot;0 0 []&quot;&gt;&lt;font style=&quot;font-size: 20px; line-height: 180%;&quot;&gt;Standard Swin Feedforward&lt;/font&gt;&lt;/p&gt;" style="rounded=1;whiteSpace=wrap;html=1;fontStyle=0;strokeColor=default;fillColor=light-dark(#FFFFFF,var(--ge-dark-color, #121212));strokeWidth=3;" vertex="1" parent="1">
          <mxGeometry x="-383" y="760" width="380" height="60" as="geometry" />
        </mxCell>
        <mxCell id="s6Bo0KcBa6-XlI6CI8b0-14" value="&lt;p data-pm-slice=&quot;0 0 []&quot;&gt;&lt;font style=&quot;font-size: 20px;&quot;&gt;Patch Merging&lt;/font&gt;&lt;/p&gt;" style="rounded=1;whiteSpace=wrap;html=1;fontStyle=0;strokeColor=default;fillColor=light-dark(#FFFFFF,var(--ge-dark-color, #121212));strokeWidth=3;" vertex="1" parent="1">
          <mxGeometry x="-383" y="840" width="380" height="60" as="geometry" />
        </mxCell>
        <mxCell id="s6Bo0KcBa6-XlI6CI8b0-40" style="edgeStyle=orthogonalEdgeStyle;rounded=1;orthogonalLoop=1;jettySize=auto;html=1;exitX=0.5;exitY=1;exitDx=0;exitDy=0;entryX=0.5;entryY=0;entryDx=0;entryDy=0;curved=0;strokeWidth=3;" edge="1" parent="1" source="s6Bo0KcBa6-XlI6CI8b0-25" target="s6Bo0KcBa6-XlI6CI8b0-32">
          <mxGeometry relative="1" as="geometry">
            <Array as="points">
              <mxPoint x="269" y="940" />
              <mxPoint x="503" y="940" />
              <mxPoint x="503" y="430" />
              <mxPoint x="733" y="430" />
            </Array>
          </mxGeometry>
        </mxCell>
        <mxCell id="s6Bo0KcBa6-XlI6CI8b0-25" value="" style="rounded=1;whiteSpace=wrap;html=1;strokeWidth=5;dashed=1;arcSize=8;" vertex="1" parent="1">
          <mxGeometry x="60" y="420" width="417" height="500" as="geometry" />
        </mxCell>
        <mxCell id="s6Bo0KcBa6-XlI6CI8b0-26" value="&lt;span style=&quot;font-size: 20px;&quot;&gt;Content Adaptive Window Partitioning&lt;/span&gt;" style="rounded=1;whiteSpace=wrap;html=1;fontStyle=0;strokeColor=default;fillColor=light-dark(#FFFFFF,var(--ge-dark-color, #121212));strokeWidth=3;" vertex="1" parent="1">
          <mxGeometry x="78.5" y="440" width="380" height="60" as="geometry" />
        </mxCell>
        <mxCell id="s6Bo0KcBa6-XlI6CI8b0-27" value="&lt;font style=&quot;font-size: 20px;&quot;&gt;Window MSA / Shifted-Window MSA&lt;/font&gt;" style="rounded=1;whiteSpace=wrap;html=1;fontStyle=0;strokeColor=default;fillColor=light-dark(#FFFFFF,var(--ge-dark-color, #121212));strokeWidth=3;" vertex="1" parent="1">
          <mxGeometry x="78.5" y="520" width="380" height="60" as="geometry" />
        </mxCell>
        <mxCell id="s6Bo0KcBa6-XlI6CI8b0-28" value="&lt;p data-pm-slice=&quot;0 0 []&quot;&gt;&lt;font style=&quot;font-size: 20px;&quot;&gt;Feature-wise Linear Modulation&lt;/font&gt;&lt;/p&gt;" style="rounded=1;whiteSpace=wrap;html=1;fontStyle=0;strokeColor=default;fillColor=light-dark(#FFFFFF,var(--ge-dark-color, #121212));strokeWidth=3;" vertex="1" parent="1">
          <mxGeometry x="78.5" y="600" width="380" height="60" as="geometry" />
        </mxCell>
        <mxCell id="s6Bo0KcBa6-XlI6CI8b0-29" value="&lt;p data-pm-slice=&quot;0 0 []&quot;&gt;&lt;font style=&quot;font-size: 20px;&quot;&gt;Lesion Prototype Tokens&lt;/font&gt;&lt;/p&gt;" style="rounded=1;whiteSpace=wrap;html=1;fontStyle=0;strokeColor=default;fillColor=light-dark(#FFFFFF,var(--ge-dark-color, #121212));strokeWidth=3;" vertex="1" parent="1">
          <mxGeometry x="78.5" y="680" width="380" height="60" as="geometry" />
        </mxCell>
        <mxCell id="s6Bo0KcBa6-XlI6CI8b0-30" value="&lt;p data-pm-slice=&quot;0 0 []&quot;&gt;&lt;font style=&quot;font-size: 20px; line-height: 180%;&quot;&gt;Standard Swin Feedforward&lt;/font&gt;&lt;/p&gt;" style="rounded=1;whiteSpace=wrap;html=1;fontStyle=0;strokeColor=default;fillColor=light-dark(#FFFFFF,var(--ge-dark-color, #121212));strokeWidth=3;" vertex="1" parent="1">
          <mxGeometry x="78.5" y="760" width="380" height="60" as="geometry" />
        </mxCell>
        <mxCell id="s6Bo0KcBa6-XlI6CI8b0-31" value="&lt;p data-pm-slice=&quot;0 0 []&quot;&gt;&lt;font style=&quot;font-size: 20px;&quot;&gt;Patch Merging&lt;/font&gt;&lt;/p&gt;" style="rounded=1;whiteSpace=wrap;html=1;fontStyle=0;strokeColor=default;fillColor=light-dark(#FFFFFF,var(--ge-dark-color, #121212));strokeWidth=3;" vertex="1" parent="1">
          <mxGeometry x="78.5" y="840" width="380" height="60" as="geometry" />
        </mxCell>
        <mxCell id="s6Bo0KcBa6-XlI6CI8b0-47" style="edgeStyle=orthogonalEdgeStyle;rounded=1;orthogonalLoop=1;jettySize=auto;html=1;exitX=0.5;exitY=1;exitDx=0;exitDy=0;entryX=0.5;entryY=0;entryDx=0;entryDy=0;curved=0;strokeWidth=3;" edge="1" parent="1" source="s6Bo0KcBa6-XlI6CI8b0-32" target="s6Bo0KcBa6-XlI6CI8b0-41">
          <mxGeometry relative="1" as="geometry">
            <Array as="points">
              <mxPoint x="732" y="900" />
              <mxPoint x="960" y="900" />
              <mxPoint x="960" y="470" />
              <mxPoint x="1185" y="470" />
            </Array>
          </mxGeometry>
        </mxCell>
        <mxCell id="s6Bo0KcBa6-XlI6CI8b0-32" value="" style="rounded=1;whiteSpace=wrap;html=1;strokeWidth=5;dashed=1;arcSize=8;" vertex="1" parent="1">
          <mxGeometry x="527.5" y="462.5" width="410" height="415" as="geometry" />
        </mxCell>
        <mxCell id="s6Bo0KcBa6-XlI6CI8b0-33" value="&lt;span style=&quot;font-size: 20px;&quot;&gt;Content Adaptive Window Partitioning&lt;/span&gt;" style="rounded=1;whiteSpace=wrap;html=1;fontStyle=0;strokeColor=default;fillColor=light-dark(#FFFFFF,var(--ge-dark-color, #121212));strokeWidth=3;" vertex="1" parent="1">
          <mxGeometry x="542.5" y="480" width="380" height="60" as="geometry" />
        </mxCell>
        <mxCell id="s6Bo0KcBa6-XlI6CI8b0-34" value="&lt;font style=&quot;font-size: 20px;&quot;&gt;Window MSA / Shifted-Window MSA&lt;/font&gt;" style="rounded=1;whiteSpace=wrap;html=1;fontStyle=0;strokeColor=default;fillColor=light-dark(#FFFFFF,var(--ge-dark-color, #121212));strokeWidth=3;" vertex="1" parent="1">
          <mxGeometry x="542.5" y="560" width="380" height="60" as="geometry" />
        </mxCell>
        <mxCell id="s6Bo0KcBa6-XlI6CI8b0-36" value="&lt;p data-pm-slice=&quot;0 0 []&quot;&gt;&lt;font style=&quot;font-size: 20px;&quot;&gt;Lesion Prototype Tokens&lt;/font&gt;&lt;/p&gt;" style="rounded=1;whiteSpace=wrap;html=1;fontStyle=0;strokeColor=default;fillColor=light-dark(#FFFFFF,var(--ge-dark-color, #121212));strokeWidth=3;" vertex="1" parent="1">
          <mxGeometry x="542.5" y="640" width="380" height="60" as="geometry" />
        </mxCell>
        <mxCell id="s6Bo0KcBa6-XlI6CI8b0-37" value="&lt;p data-pm-slice=&quot;0 0 []&quot;&gt;&lt;font style=&quot;font-size: 20px; line-height: 180%;&quot;&gt;Standard Swin Feedforward&lt;/font&gt;&lt;/p&gt;" style="rounded=1;whiteSpace=wrap;html=1;fontStyle=0;strokeColor=default;fillColor=light-dark(#FFFFFF,var(--ge-dark-color, #121212));strokeWidth=3;" vertex="1" parent="1">
          <mxGeometry x="542.5" y="720" width="380" height="60" as="geometry" />
        </mxCell>
        <mxCell id="s6Bo0KcBa6-XlI6CI8b0-38" value="&lt;p data-pm-slice=&quot;0 0 []&quot;&gt;&lt;font style=&quot;font-size: 20px;&quot;&gt;Patch Merging&lt;/font&gt;&lt;/p&gt;" style="rounded=1;whiteSpace=wrap;html=1;fontStyle=0;strokeColor=default;fillColor=light-dark(#FFFFFF,var(--ge-dark-color, #121212));strokeWidth=3;" vertex="1" parent="1">
          <mxGeometry x="542.5" y="800" width="380" height="60" as="geometry" />
        </mxCell>
        <mxCell id="s6Bo0KcBa6-XlI6CI8b0-41" value="" style="rounded=1;whiteSpace=wrap;html=1;strokeWidth=5;dashed=1;arcSize=8;" vertex="1" parent="1">
          <mxGeometry x="980" y="502.5" width="410" height="337.5" as="geometry" />
        </mxCell>
        <mxCell id="s6Bo0KcBa6-XlI6CI8b0-42" value="&lt;span style=&quot;font-size: 20px;&quot;&gt;Content Adaptive Window Partitioning&lt;/span&gt;" style="rounded=1;whiteSpace=wrap;html=1;fontStyle=0;strokeColor=default;fillColor=light-dark(#FFFFFF,var(--ge-dark-color, #121212));strokeWidth=3;" vertex="1" parent="1">
          <mxGeometry x="995" y="520" width="380" height="60" as="geometry" />
        </mxCell>
        <mxCell id="s6Bo0KcBa6-XlI6CI8b0-43" value="&lt;font style=&quot;font-size: 20px;&quot;&gt;Window MSA / Shifted-Window MSA&lt;/font&gt;" style="rounded=1;whiteSpace=wrap;html=1;fontStyle=0;strokeColor=default;fillColor=light-dark(#FFFFFF,var(--ge-dark-color, #121212));strokeWidth=3;" vertex="1" parent="1">
          <mxGeometry x="995" y="600" width="380" height="60" as="geometry" />
        </mxCell>
        <mxCell id="s6Bo0KcBa6-XlI6CI8b0-44" value="&lt;p data-pm-slice=&quot;0 0 []&quot;&gt;&lt;font style=&quot;font-size: 20px;&quot;&gt;Lesion Prototype Tokens&lt;/font&gt;&lt;/p&gt;" style="rounded=1;whiteSpace=wrap;html=1;fontStyle=0;strokeColor=default;fillColor=light-dark(#FFFFFF,var(--ge-dark-color, #121212));strokeWidth=3;" vertex="1" parent="1">
          <mxGeometry x="995" y="680" width="380" height="60" as="geometry" />
        </mxCell>
        <mxCell id="s6Bo0KcBa6-XlI6CI8b0-45" value="&lt;p data-pm-slice=&quot;0 0 []&quot;&gt;&lt;font style=&quot;font-size: 20px; line-height: 180%;&quot;&gt;Standard Swin Feedforward&lt;/font&gt;&lt;/p&gt;" style="rounded=1;whiteSpace=wrap;html=1;fontStyle=0;strokeColor=default;fillColor=light-dark(#FFFFFF,var(--ge-dark-color, #121212));strokeWidth=3;" vertex="1" parent="1">
          <mxGeometry x="995" y="760" width="380" height="60" as="geometry" />
        </mxCell>
        <mxCell id="s6Bo0KcBa6-XlI6CI8b0-134" style="edgeStyle=orthogonalEdgeStyle;rounded=1;orthogonalLoop=1;jettySize=auto;html=1;exitX=0.5;exitY=1;exitDx=0;exitDy=0;curved=0;strokeWidth=3;entryX=0;entryY=0.5;entryDx=0;entryDy=0;" edge="1" parent="1" source="s6Bo0KcBa6-XlI6CI8b0-91" target="s6Bo0KcBa6-XlI6CI8b0-132">
          <mxGeometry relative="1" as="geometry">
            <mxPoint x="-520" y="1250" as="targetPoint" />
            <Array as="points">
              <mxPoint x="-931" y="1780" />
              <mxPoint x="-680" y="1780" />
              <mxPoint x="-680" y="1316" />
            </Array>
          </mxGeometry>
        </mxCell>
        <mxCell id="s6Bo0KcBa6-XlI6CI8b0-91" value="" style="rounded=1;whiteSpace=wrap;html=1;strokeWidth=5;dashed=1;arcSize=8;" vertex="1" parent="1">
          <mxGeometry x="-1146.38" y="1254" width="430" height="500" as="geometry" />
        </mxCell>
        <mxCell id="s6Bo0KcBa6-XlI6CI8b0-92" value="&lt;font style=&quot;font-size: 20px; line-height: 140%;&quot;&gt;Input Image&lt;/font&gt;" style="rounded=1;whiteSpace=wrap;html=1;fontStyle=1;strokeColor=default;fillColor=light-dark(#FFFFFF,var(--ge-dark-color, #121212));strokeWidth=5;" vertex="1" parent="1">
          <mxGeometry x="-1415" y="1306.5" width="160" height="60" as="geometry" />
        </mxCell>
        <mxCell id="s6Bo0KcBa6-XlI6CI8b0-139" style="edgeStyle=orthogonalEdgeStyle;rounded=1;orthogonalLoop=1;jettySize=auto;html=1;exitX=0.5;exitY=1;exitDx=0;exitDy=0;entryX=0.5;entryY=1;entryDx=0;entryDy=0;curved=0;strokeWidth=3;dashed=1;" edge="1" parent="1" source="s6Bo0KcBa6-XlI6CI8b0-93" target="s6Bo0KcBa6-XlI6CI8b0-136">
          <mxGeometry relative="1" as="geometry">
            <Array as="points">
              <mxPoint x="-1301" y="1810" />
              <mxPoint x="-575" y="1810" />
            </Array>
          </mxGeometry>
        </mxCell>
        <mxCell id="s6Bo0KcBa6-XlI6CI8b0-93" value="&lt;font style=&quot;font-size: 20px; line-height: 140%;&quot;&gt;Input Metadata&lt;/font&gt;" style="rounded=1;whiteSpace=wrap;html=1;fontStyle=1;strokeColor=default;fillColor=light-dark(#FFFFFF,var(--ge-dark-color, #121212));strokeWidth=5;" vertex="1" parent="1">
          <mxGeometry x="-1396.38" y="1680" width="190" height="60" as="geometry" />
        </mxCell>
        <mxCell id="s6Bo0KcBa6-XlI6CI8b0-94" style="edgeStyle=orthogonalEdgeStyle;rounded=1;orthogonalLoop=1;jettySize=auto;html=1;exitX=0.5;exitY=0;exitDx=0;exitDy=0;curved=0;strokeWidth=3;entryX=0.5;entryY=0;entryDx=0;entryDy=0;" edge="1" parent="1" source="s6Bo0KcBa6-XlI6CI8b0-95" target="s6Bo0KcBa6-XlI6CI8b0-91">
          <mxGeometry relative="1" as="geometry">
            <Array as="points">
              <mxPoint x="-1335" y="1210" />
              <mxPoint x="-931" y="1210" />
            </Array>
            <mxPoint x="-780" y="1140" as="targetPoint" />
          </mxGeometry>
        </mxCell>
        <mxCell id="s6Bo0KcBa6-XlI6CI8b0-95" value="\[&#xa;\text{Patch Tokens } X_0&#xa;\]" style="text;whiteSpace=wrap;align=center;verticalAlign=middle;fontSize=20;" vertex="1" parent="1">
          <mxGeometry x="-1440" y="1254" width="210" height="40" as="geometry" />
        </mxCell>
        <mxCell id="s6Bo0KcBa6-XlI6CI8b0-96" style="edgeStyle=orthogonalEdgeStyle;rounded=1;orthogonalLoop=1;jettySize=auto;html=1;exitX=0.5;exitY=0;exitDx=0;exitDy=0;entryX=0;entryY=0.5;entryDx=0;entryDy=0;curved=0;strokeWidth=3;" edge="1" parent="1" target="s6Bo0KcBa6-XlI6CI8b0-100">
          <mxGeometry relative="1" as="geometry">
            <Array as="points">
              <mxPoint x="-1301" y="1420" />
              <mxPoint x="-1220" y="1420" />
              <mxPoint x="-1220" y="1380" />
            </Array>
            <mxPoint x="-1301.38" y="1590" as="sourcePoint" />
          </mxGeometry>
        </mxCell>
        <mxCell id="s6Bo0KcBa6-XlI6CI8b0-97" style="edgeStyle=orthogonalEdgeStyle;rounded=1;orthogonalLoop=1;jettySize=auto;html=1;entryX=0;entryY=0.5;entryDx=0;entryDy=0;curved=0;strokeWidth=3;exitX=0.5;exitY=0;exitDx=0;exitDy=0;" edge="1" parent="1" source="s6Bo0KcBa6-XlI6CI8b0-156" target="s6Bo0KcBa6-XlI6CI8b0-101">
          <mxGeometry relative="1" as="geometry">
            <Array as="points">
              <mxPoint x="-1301" y="1420" />
              <mxPoint x="-1220" y="1420" />
              <mxPoint x="-1220" y="1460" />
            </Array>
            <mxPoint x="-1301.38" y="1590" as="sourcePoint" />
          </mxGeometry>
        </mxCell>
        <mxCell id="s6Bo0KcBa6-XlI6CI8b0-99" value="&lt;span style=&quot;font-size: 20px;&quot;&gt;Content Adaptive Window Partitioning&lt;/span&gt;" style="rounded=1;whiteSpace=wrap;html=1;fontStyle=0;strokeColor=default;fillColor=light-dark(#FFFFFF,var(--ge-dark-color, #121212));strokeWidth=3;" vertex="1" parent="1">
          <mxGeometry x="-1121.38" y="1270" width="380" height="60" as="geometry" />
        </mxCell>
        <mxCell id="s6Bo0KcBa6-XlI6CI8b0-100" value="&lt;font style=&quot;font-size: 20px;&quot;&gt;Window MSA / Shifted-Window MSA&lt;/font&gt;" style="rounded=1;whiteSpace=wrap;html=1;fontStyle=0;strokeColor=default;fillColor=light-dark(#FFFFFF,var(--ge-dark-color, #121212));strokeWidth=3;" vertex="1" parent="1">
          <mxGeometry x="-1121.38" y="1350" width="380" height="60" as="geometry" />
        </mxCell>
        <mxCell id="s6Bo0KcBa6-XlI6CI8b0-101" value="&lt;p data-pm-slice=&quot;0 0 []&quot;&gt;&lt;font style=&quot;font-size: 20px;&quot;&gt;Feature-wise Linear Modulation&lt;/font&gt;&lt;/p&gt;" style="rounded=1;whiteSpace=wrap;html=1;fontStyle=0;strokeColor=default;fillColor=light-dark(#FFFFFF,var(--ge-dark-color, #121212));strokeWidth=3;" vertex="1" parent="1">
          <mxGeometry x="-1121.38" y="1430" width="380" height="60" as="geometry" />
        </mxCell>
        <mxCell id="s6Bo0KcBa6-XlI6CI8b0-102" value="&lt;p data-pm-slice=&quot;0 0 []&quot;&gt;&lt;font style=&quot;font-size: 20px;&quot;&gt;Lesion Prototype Tokens&lt;/font&gt;&lt;/p&gt;" style="rounded=1;whiteSpace=wrap;html=1;fontStyle=0;strokeColor=default;fillColor=light-dark(#FFFFFF,var(--ge-dark-color, #121212));strokeWidth=3;" vertex="1" parent="1">
          <mxGeometry x="-1121.38" y="1510" width="380" height="60" as="geometry" />
        </mxCell>
        <mxCell id="s6Bo0KcBa6-XlI6CI8b0-103" value="&lt;p data-pm-slice=&quot;0 0 []&quot;&gt;&lt;font style=&quot;font-size: 20px; line-height: 180%;&quot;&gt;Standard Swin Feedforward&lt;/font&gt;&lt;/p&gt;" style="rounded=1;whiteSpace=wrap;html=1;fontStyle=0;strokeColor=default;fillColor=light-dark(#FFFFFF,var(--ge-dark-color, #121212));strokeWidth=3;" vertex="1" parent="1">
          <mxGeometry x="-1121.38" y="1590" width="380" height="60" as="geometry" />
        </mxCell>
        <mxCell id="s6Bo0KcBa6-XlI6CI8b0-104" value="&lt;p data-pm-slice=&quot;0 0 []&quot;&gt;&lt;font style=&quot;font-size: 20px;&quot;&gt;Patch Merging (Except Stage 4)&lt;/font&gt;&lt;/p&gt;" style="rounded=1;whiteSpace=wrap;html=1;fontStyle=0;strokeColor=default;fillColor=light-dark(#FFFFFF,var(--ge-dark-color, #121212));strokeWidth=3;" vertex="1" parent="1">
          <mxGeometry x="-1121.38" y="1670" width="380" height="60" as="geometry" />
        </mxCell>
        <mxCell id="s6Bo0KcBa6-XlI6CI8b0-127" value="&lt;font style=&quot;font-size: 20px;&quot;&gt;Swin Stages 1 to 4&lt;/font&gt;" style="text;html=1;align=center;verticalAlign=middle;whiteSpace=wrap;rounded=0;fontStyle=1" vertex="1" parent="1">
          <mxGeometry x="-906.38" y="1210" width="190" height="30" as="geometry" />
        </mxCell>
        <mxCell id="s6Bo0KcBa6-XlI6CI8b0-154" style="edgeStyle=orthogonalEdgeStyle;rounded=1;orthogonalLoop=1;jettySize=auto;html=1;exitX=1;exitY=0.5;exitDx=0;exitDy=0;curved=0;strokeWidth=3;" edge="1" parent="1" source="s6Bo0KcBa6-XlI6CI8b0-132" target="s6Bo0KcBa6-XlI6CI8b0-136">
          <mxGeometry relative="1" as="geometry">
            <Array as="points">
              <mxPoint x="-200" y="1315" />
              <mxPoint x="-200" y="1379" />
              <mxPoint x="-575" y="1379" />
            </Array>
          </mxGeometry>
        </mxCell>
        <mxCell id="s6Bo0KcBa6-XlI6CI8b0-132" value="&lt;font style=&quot;font-size: 20px;&quot;&gt;Global Average Pool&lt;/font&gt;" style="rounded=1;whiteSpace=wrap;html=1;fontStyle=0;strokeColor=default;fillColor=light-dark(#FFFFFF,var(--ge-dark-color, #121212));strokeWidth=3;" vertex="1" parent="1">
          <mxGeometry x="-480" y="1285.5" width="230" height="60" as="geometry" />
        </mxCell>
        <mxCell id="s6Bo0KcBa6-XlI6CI8b0-135" value="&lt;font style=&quot;font-size: 20px;&quot;&gt;Token Map Output&lt;/font&gt;" style="text;html=1;align=center;verticalAlign=middle;whiteSpace=wrap;rounded=0;fontStyle=0" vertex="1" parent="1">
          <mxGeometry x="-680" y="1276.5" width="190" height="30" as="geometry" />
        </mxCell>
        <mxCell id="s6Bo0KcBa6-XlI6CI8b0-142" style="edgeStyle=orthogonalEdgeStyle;rounded=0;orthogonalLoop=1;jettySize=auto;html=1;exitX=1;exitY=0.5;exitDx=0;exitDy=0;strokeWidth=3;" edge="1" parent="1" source="s6Bo0KcBa6-XlI6CI8b0-136" target="s6Bo0KcBa6-XlI6CI8b0-141">
          <mxGeometry relative="1" as="geometry" />
        </mxCell>
        <mxCell id="s6Bo0KcBa6-XlI6CI8b0-136" value="&lt;font style=&quot;font-size: 20px;&quot;&gt;Meta Gate&lt;/font&gt;" style="rounded=1;whiteSpace=wrap;html=1;fontStyle=0;strokeColor=default;fillColor=light-dark(#FFFFFF,var(--ge-dark-color, #121212));strokeWidth=3;" vertex="1" parent="1">
          <mxGeometry x="-650" y="1459" width="150" height="60" as="geometry" />
        </mxCell>
        <mxCell id="s6Bo0KcBa6-XlI6CI8b0-155" style="edgeStyle=orthogonalEdgeStyle;rounded=0;orthogonalLoop=1;jettySize=auto;html=1;exitX=1;exitY=0.5;exitDx=0;exitDy=0;strokeWidth=3;" edge="1" parent="1" source="s6Bo0KcBa6-XlI6CI8b0-141" target="s6Bo0KcBa6-XlI6CI8b0-143">
          <mxGeometry relative="1" as="geometry" />
        </mxCell>
        <mxCell id="s6Bo0KcBa6-XlI6CI8b0-141" value="&lt;font style=&quot;font-size: 20px;&quot;&gt;Fusion&lt;/font&gt;" style="rounded=1;whiteSpace=wrap;html=1;fontStyle=0;strokeColor=default;fillColor=light-dark(#FFFFFF,var(--ge-dark-color, #121212));strokeWidth=3;" vertex="1" parent="1">
          <mxGeometry x="-430" y="1459" width="110" height="60" as="geometry" />
        </mxCell>
        <mxCell id="s6Bo0KcBa6-XlI6CI8b0-153" style="edgeStyle=orthogonalEdgeStyle;rounded=1;orthogonalLoop=1;jettySize=auto;html=1;exitX=0.5;exitY=1;exitDx=0;exitDy=0;entryX=0.5;entryY=0;entryDx=0;entryDy=0;curved=0;strokeWidth=3;" edge="1" parent="1" source="s6Bo0KcBa6-XlI6CI8b0-143" target="s6Bo0KcBa6-XlI6CI8b0-150">
          <mxGeometry relative="1" as="geometry">
            <Array as="points">
              <mxPoint x="-193" y="1559" />
              <mxPoint x="-318" y="1559" />
            </Array>
          </mxGeometry>
        </mxCell>
        <mxCell id="s6Bo0KcBa6-XlI6CI8b0-143" value="&lt;font style=&quot;font-size: 20px;&quot;&gt; Subtype Head&lt;/font&gt;" style="rounded=1;whiteSpace=wrap;html=1;fontStyle=0;strokeColor=default;fillColor=light-dark(#FFFFFF,var(--ge-dark-color, #121212));strokeWidth=3;" vertex="1" parent="1">
          <mxGeometry x="-260" y="1459" width="170" height="60" as="geometry" />
        </mxCell>
        <mxCell id="s6Bo0KcBa6-XlI6CI8b0-145" value="&lt;font style=&quot;font-size: 20px;&quot;&gt;Softmax Classifier&lt;/font&gt;" style="text;html=1;align=center;verticalAlign=middle;whiteSpace=wrap;rounded=0;fontStyle=0" vertex="1" parent="1">
          <mxGeometry x="-270" y="1419" width="190" height="30" as="geometry" />
        </mxCell>
        <mxCell id="s6Bo0KcBa6-XlI6CI8b0-146" value="&lt;span style=&quot;font-size: 20px;&quot;&gt;Subtype Class 1&lt;/span&gt;" style="rounded=1;whiteSpace=wrap;html=1;fontStyle=0;strokeColor=default;fillColor=light-dark(#FFFFFF,var(--ge-dark-color, #121212));strokeWidth=3;dashed=1;" vertex="1" parent="1">
          <mxGeometry x="-510" y="1669" width="190" height="60" as="geometry" />
        </mxCell>
        <mxCell id="s6Bo0KcBa6-XlI6CI8b0-147" value="&lt;span style=&quot;font-size: 20px;&quot;&gt;Subtype Class 2&lt;/span&gt;" style="rounded=1;whiteSpace=wrap;html=1;fontStyle=0;strokeColor=default;fillColor=light-dark(#FFFFFF,var(--ge-dark-color, #121212));strokeWidth=3;dashed=1;" vertex="1" parent="1">
          <mxGeometry x="-300" y="1669" width="190" height="60" as="geometry" />
        </mxCell>
        <mxCell id="s6Bo0KcBa6-XlI6CI8b0-151" value="&lt;font style=&quot;font-size: 20px;&quot;&gt;Output Classes&lt;/font&gt;" style="text;html=1;align=center;verticalAlign=middle;whiteSpace=wrap;rounded=0;fontStyle=1" vertex="1" parent="1">
          <mxGeometry x="-385" y="1620" width="150" height="30" as="geometry" />
        </mxCell>
        <mxCell id="s6Bo0KcBa6-XlI6CI8b0-156" value="&lt;font style=&quot;font-size: 20px;&quot;&gt;Meta Tokens&lt;/font&gt;" style="text;html=1;align=center;verticalAlign=middle;whiteSpace=wrap;rounded=0;fontStyle=0" vertex="1" parent="1">
          <mxGeometry x="-1366.38" y="1639" width="130" height="30" as="geometry" />
        </mxCell>
      </root>
    </mxGraphModel>
  </diagram>
</mxfile>
